# xmcd
#
# Track frame offsets: 
#        150
#        22723
#        36895
#        63376
#        75442
#        92317
#        106425
#        132060
#        160424
#        176774
#        191113
#
# Disc length: 2771 seconds
#
# Revision: 0
# Processed by: cddbd v1.5.2PL0 Copyright (c) Steve Scherf et al.
# Submitted via: ExactAudioCopyFreeDBPlugin 1.0
#
DISCID=800ad10b
DTITLE=Colin Lake - The Ones I Love
DYEAR=2011
DGENRE=
TTITLE0=Temporary Living
TTITLE1=Ain't Gonna Worry
TTITLE2=Sammy Song
TTITLE3=In On Time
TTITLE4=The Ones I Love
TTITLE5=Start At The Bottom
TTITLE6=Lovin' Man
TTITLE7=Where Did We Go Wrong
TTITLE8=Learning The Way
TTITLE9=Skipjack
TTITLE10=Flowers In Her Hair
EXTD=
EXTT0=
EXTT1=
EXTT2=
EXTT3=
EXTT4=
EXTT5=
EXTT6=
EXTT7=
EXTT8=
EXTT9=
EXTT10=
PLAYORDER=
